<?xml version="1.0" encoding="UTF-8"?><svg id="Layer_2" xmlns="http://www.w3.org/2000/svg" xmlns:xlink="http://www.w3.org/1999/xlink" viewBox="0 0 175.75 243.78"><defs><style>.cls-1{clip-path:url(#clippath);}.cls-2,.cls-3{fill:none;}.cls-2,.cls-4,.cls-5{stroke-width:0px;}.cls-6{clip-path:url(#clippath-1);}.cls-7{clip-path:url(#clippath-3);}.cls-8{clip-path:url(#clippath-2);}.cls-3{stroke:#373535;stroke-width:.5px;}.cls-4{fill:#373535;}.cls-5{fill:#e8e99c;}</style><clipPath id="clippath"><rect class="cls-2" width="175.75" height="243.78"/></clipPath><clipPath id="clippath-1"><rect class="cls-2" width="175.75" height="243.78"/></clipPath><clipPath id="clippath-2"><rect class="cls-2" width="175.75" height="243.78"/></clipPath><clipPath id="clippath-3"><rect class="cls-2" width="175.75" height="243.78"/></clipPath></defs><g id="Layer_1-2"><g class="cls-1"><rect class="cls-5" y="0" width="175.75" height="243.78"/><rect class="cls-5" x="8.75" y="8.75" width="158.24" height="226.27"/><rect class="cls-3" x="8.75" y="8.75" width="158.24" height="226.27"/><rect class="cls-4" x="34.07" y="122.33" width="3.03" height="3.28"/><rect class="cls-4" x="34.07" y="115.77" width="3.03" height="3.28"/><g class="cls-6"><path class="cls-4" d="m45.77,125.77h-2.33v-10.59h2.35c1.99,0,3.1.75,3.79,1.64.78,1.02,1.11,2.39,1.11,3.68,0,2.94-1.37,5.27-4.92,5.27m-.42-13.49h-5.2v16.39h5.45c5.96,0,8.39-3.59,8.39-8.22,0-2.02-.49-3.83-1.68-5.34-1.95-2.64-4.92-2.84-6.95-2.84"/></g><rect class="cls-4" x="60.72" y="112.28" width="3.3" height="16.39"/><rect class="cls-4" x="71.45" y="112.28" width="3.3" height="16.39"/><g class="cls-8"><path class="cls-4" d="m89.53,119.72c-.66.35-1.4.42-2.15.42h-1.95v-4.96h1.82c.82,0,1.57.07,2.24.42.64.31,1.13,1,1.13,2.04s-.49,1.77-1.09,2.08m2.39-6.31c-.95-.73-2.06-1.13-4.83-1.13h-4.96v16.39h3.3v-5.62h2.02c2.39,0,3.5-.4,4.61-1.31,1.04-.84,1.73-2.52,1.73-4.14s-.66-3.21-1.86-4.19"/></g><rect class="cls-4" x="99.79" y="112.28" width="3.3" height="16.39"/><polygon class="cls-4" points="122.89 112.28 119.42 112.28 113.99 119.88 113.99 112.28 110.69 112.28 110.69 128.67 113.99 128.67 113.99 121.31 119.46 128.67 123.49 128.67 116.96 120.45 122.89 112.28"/><g class="cls-7"><path class="cls-4" d="m134.95,119.28c-2.77-1.15-3.65-1.46-3.63-2.68,0-1.11.93-1.86,2.01-1.86,1.62,0,1.9,1.26,2.04,2.02h3.25c-.13-3.63-3.01-4.78-5.18-4.78-2.66,0-5.43,1.71-5.43,4.85s2.86,4.12,4.1,4.56c2.28.91,3.46,1.26,3.46,2.66,0,1.15-.97,2.17-2.24,2.17-.71,0-2.19-.42-2.3-2.64h-3.28c-.02,3.17,1.9,5.4,5.62,5.4s5.47-2.46,5.47-5.09c0-2.33-1.4-3.52-3.9-4.61"/></g></g></g></svg>