<?xml version="1.0" encoding="UTF-8"?><svg id="Layer_2" xmlns="http://www.w3.org/2000/svg" xmlns:xlink="http://www.w3.org/1999/xlink" viewBox="0 0 175.75 243.78"><defs><style>.cls-1{clip-path:url(#clippath);}.cls-2,.cls-3{fill:none;}.cls-2,.cls-4,.cls-5,.cls-6{stroke-width:0px;}.cls-7{clip-path:url(#clippath-1);}.cls-8{clip-path:url(#clippath-3);}.cls-9{clip-path:url(#clippath-2);}.cls-3{stroke:#373535;stroke-width:.5px;}.cls-4{fill:#373535;}.cls-5{fill:#fff;}.cls-6{fill:#e8e99c;}</style><clipPath id="clippath"><rect class="cls-2" width="175.75" height="243.78"/></clipPath><clipPath id="clippath-1"><rect class="cls-2" width="175.75" height="243.78"/></clipPath><clipPath id="clippath-2"><rect class="cls-2" width="175.75" height="243.78"/></clipPath><clipPath id="clippath-3"><rect class="cls-2" width="175.75" height="243.78"/></clipPath></defs><g id="Layer_1-2"><g class="cls-1"><rect class="cls-6" y="0" width="175.75" height="243.78"/><rect class="cls-5" x="8.75" y="8.75" width="158.24" height="226.27"/><rect class="cls-3" x="8.75" y="8.75" width="158.24" height="226.27"/><line class="cls-3" x1="8.5" y1="215.12" x2="167.24" y2="215.12"/><line class="cls-3" x1="8.5" y1="44.05" x2="167.24" y2="44.05"/><rect class="cls-4" x="70.87" y="225.82" width=".99" height="1.06"/><rect class="cls-4" x="70.87" y="223.69" width=".99" height="1.07"/><g class="cls-7"><path class="cls-4" d="m74.67,226.93h-.75v-3.44h.76c.65,0,1.01.24,1.23.53.25.33.36.78.36,1.19,0,.96-.45,1.71-1.6,1.71m-.14-4.38h-1.69v5.32h1.77c1.93,0,2.72-1.16,2.72-2.67,0-.65-.16-1.24-.55-1.73-.63-.85-1.6-.92-2.26-.92"/></g><rect class="cls-4" x="79.52" y="222.55" width="1.07" height="5.32"/><rect class="cls-4" x="83" y="222.55" width="1.07" height="5.32"/><g class="cls-9"><path class="cls-4" d="m88.87,224.97c-.22.11-.45.14-.7.14h-.63v-1.61h.59c.27,0,.51.02.73.14.21.1.37.32.37.66s-.16.58-.35.68m.78-2.05c-.31-.24-.67-.37-1.57-.37h-1.61v5.32h1.07v-1.83h.65c.78,0,1.14-.13,1.5-.42.34-.27.56-.82.56-1.34s-.22-1.04-.6-1.36"/></g><rect class="cls-4" x="92.2" y="222.55" width="1.07" height="5.32"/><polygon class="cls-4" points="99.7 222.55 98.57 222.55 96.81 225.02 96.81 222.55 95.74 222.55 95.74 227.87 96.81 227.87 96.81 225.49 98.59 227.87 99.9 227.87 97.78 225.21 99.7 222.55"/><g class="cls-8"><path class="cls-4" d="m103.62,224.83c-.9-.37-1.19-.48-1.18-.87,0-.36.3-.6.65-.6.53,0,.62.41.66.65h1.06c-.04-1.18-.98-1.55-1.68-1.55-.86,0-1.76.55-1.76,1.57s.93,1.34,1.33,1.48c.74.3,1.12.41,1.12.86,0,.37-.32.7-.73.7-.23,0-.71-.14-.75-.85h-1.06c0,1.03.62,1.75,1.83,1.75s1.78-.8,1.78-1.65c0-.76-.45-1.14-1.26-1.5"/></g></g></g></svg>